<?xml version="1.0" encoding="UTF-8"?>
<svg id="Layer_1" data-name="Layer 1" xmlns="http://www.w3.org/2000/svg" viewBox="0 0 220.5 545.8">
  <path d="M162.6,437.4v-3.6h3.6v3.6h-3.6ZM216.9,437.4v-3.6h3.6v3.6h-3.6ZM162.6,383.2v-3.6h3.6v3.6h-3.6ZM216.9,383.2v-3.6h3.6v3.6h-3.6ZM216.9,545.8v-3.6h3.6v3.6h-3.6ZM108.4,329v-3.6h3.6v3.6h-3.6ZM162.6,329v-3.6h3.6v3.6h-3.6ZM216.9,329v-3.6h3.6v3.6h-3.6ZM216.9,491.6v-3.6h3.6v3.6h-3.6ZM54.2,329v-3.6h3.6v3.6h-3.6ZM54.2,274.6v-3.6h3.6v3.6h-3.6ZM108.4,274.6v-3.6h3.6v3.6h-3.6ZM162.6,112v-3.6h3.6v3.6h-3.6ZM162.6,274.6v-3.6h3.6v3.6h-3.6ZM216.9,112v-3.6h3.6v3.6h-3.6ZM216.9,274.6v-3.6h3.6v3.6h-3.6ZM0,274.6v-3.6h3.6v3.6H0ZM54.2,220.4v-3.6h3.6v3.6h-3.6ZM108.4,220.4v-3.6h3.6v3.6h-3.6ZM162.6,220.4v-3.6h3.6v3.6h-3.6ZM216.9,220.4v-3.6h3.6v3.6h-3.6ZM54.2,166.2v-3.6h3.6v3.6h-3.6ZM108.4,166.2v-3.6h3.6v3.6h-3.6ZM162.6,166.2v-3.6h3.6v3.6h-3.6ZM216.9,166.2v-3.6h3.6v3.6h-3.6ZM216.9,112v-3.6h3.6v3.6h-3.6ZM216.9,57.8v-3.6h3.6v3.6h-3.6ZM216.9,57.8v-3.6h3.6v3.6h-3.6ZM216.9,3.6V0h3.6v3.6h-3.6ZM217.87,112v-3.6h2.63v3.6h-2.63Z"/>
</svg>