<?xml version="1.0" encoding="UTF-8"?>
<svg id="Layer_1" xmlns="http://www.w3.org/2000/svg" version="1.1" viewBox="0 0 220.5 166.2">
  <!-- Generator: Adobe Illustrator 29.0.0, SVG Export Plug-In . SVG Version: 2.1.0 Build 186)  -->
  <defs>
    <style>
      .st0 {
        fill: #fff;
      }
    </style>
  </defs>
  <g id="Layer_11" data-name="Layer_1">
    <path class="st0" d="M166.3,0v3.6h-3.6V0h3.6ZM112,0v3.6h-3.6V0h3.6ZM57.8,0v3.6h-3.6V0h3.6ZM3.6,162.6v3.6H0v-3.6h3.6ZM3.6,0v3.6H0V0h3.6ZM220.5,0v3.6h-3.6V0h3.6ZM166.3,54.2v3.6h-3.6v-3.6h3.6ZM112,54.2v3.6h-3.6v-3.6h3.6ZM57.8,54.2v3.6h-3.6v-3.6h3.6ZM3.6,54.2v3.6H0v-3.6h3.6ZM112,108.4v3.6h-3.6v-3.6h3.6ZM57.8,108.4v3.6h-3.6v-3.6h3.6ZM3.6,108.4v3.6H0v-3.6h3.6Z"/>
  </g>
</svg>