<?xml version="1.0" encoding="UTF-8"?>
<svg xmlns="http://www.w3.org/2000/svg" version="1.1" viewBox="0 0 220.5 166.2">
  <!-- Generator: Adobe Illustrator 28.7.1, SVG Export Plug-In . SVG Version: 1.2.0 Build 142)  -->
  <g>
    <g id="Layer_1">
      <path d="M166.3,0v3.6h-3.6V0h3.6ZM112,0v3.6h-3.6V0h3.6ZM57.8,0v3.6h-3.6V0h3.6ZM3.6,162.6v3.6H0v-3.6h3.6ZM3.6,0v3.6H0V0h3.6ZM220.5,0v3.6h-3.6V0h3.6ZM166.3,54.2v3.6h-3.6v-3.6h3.6ZM112,54.2v3.6h-3.6v-3.6h3.6ZM57.8,54.2v3.6h-3.6v-3.6h3.6ZM3.6,54.2v3.6H0v-3.6h3.6ZM112,108.4v3.6h-3.6v-3.6h3.6ZM57.8,108.4v3.6h-3.6v-3.6h3.6ZM3.6,108.4v3.6H0v-3.6h3.6Z"/>
    </g>
  </g>
</svg>