<?xml version="1.0" encoding="UTF-8"?>
<svg xmlns="http://www.w3.org/2000/svg" version="1.1" viewBox="0 0 335.3 599.9">
  <defs>
    <style>
      .cls-1 {
        fill: #ff4200;
      }
    </style>
  </defs>
  <!-- Generator: Adobe Illustrator 28.7.1, SVG Export Plug-In . SVG Version: 1.2.0 Build 142)  -->
  <g>
    <g id="Layer_1">
      <rect class="cls-1" x="108.4" y="271.1" width="3.6" height="3.6"/>
      <rect class="cls-1" x="162.6" y="433.7" width="3.6" height="3.6"/>
      <rect class="cls-1" x="162.6" y="271.1" width="3.6" height="3.6"/>
      <rect class="cls-1" x="216.8" y="433.7" width="3.6" height="3.6"/>
      <rect class="cls-1" x="216.8" y="108.4" width="3.6" height="3.6"/>
      <rect class="cls-1" x="216.8" y="596.3" width="3.6" height="3.6"/>
      <rect class="cls-1" x="216.8" y="271.1" width="3.6" height="3.6"/>
      <rect class="cls-1" x="271.1" y="433.7" width="3.6" height="3.6"/>
      <rect class="cls-1" x="271.1" y="108.4" width="3.6" height="3.6"/>
      <rect class="cls-1" x="271.1" y="596.3" width="3.6" height="3.6"/>
      <rect class="cls-1" x="271.1" y="271.1" width="3.6" height="3.6"/>
      <rect class="cls-1" x="325.3" y="433.7" width="3.6" height="3.6"/>
      <rect class="cls-1" x="325.3" y="108.4" width="3.6" height="3.6"/>
      <rect class="cls-1" x="325.3" y="596.3" width="3.6" height="3.6"/>
      <rect class="cls-1" x="325.3" y="271.1" width="3.6" height="3.6"/>
      <rect class="cls-1" y="271.1" width="3.6" height="3.6"/>
      <rect class="cls-1" x="54.2" y="271.1" width="3.6" height="3.6"/>
      <rect class="cls-1" x="108.4" y="379.5" width="3.6" height="3.6"/>
      <rect class="cls-1" x="108.4" y="216.8" width="3.6" height="3.6"/>
      <rect class="cls-1" x="162.6" y="379.5" width="3.6" height="3.6"/>
      <rect class="cls-1" x="162.6" y="216.8" width="3.6" height="3.6"/>
      <rect class="cls-1" x="216.8" y="379.5" width="3.6" height="3.6"/>
      <rect class="cls-1" x="216.8" y="542.1" width="3.6" height="3.6"/>
      <rect class="cls-1" x="216.8" y="216.8" width="3.6" height="3.6"/>
      <rect class="cls-1" x="271.1" y="379.5" width="3.6" height="3.6"/>
      <rect class="cls-1" x="271.1" y="542.1" width="3.6" height="3.6"/>
      <rect class="cls-1" x="271.1" y="216.8" width="3.6" height="3.6"/>
      <rect class="cls-1" x="325.3" y="379.5" width="3.6" height="3.6"/>
      <rect class="cls-1" x="325.3" y="54.2" width="3.6" height="3.6"/>
      <rect class="cls-1" x="325.3" y="542.1" width="3.6" height="3.6"/>
      <rect class="cls-1" x="325.3" y="216.8" width="3.6" height="3.6"/>
      <rect class="cls-1" x="108.4" y="325.3" width="3.6" height="3.6"/>
      <rect class="cls-1" x="108.4" y="162.6" width="3.6" height="3.6"/>
      <rect class="cls-1" x="162.6" y="325.3" width="3.6" height="3.6"/>
      <rect class="cls-1" x="162.6" y="487.9" width="3.6" height="3.6"/>
      <rect class="cls-1" x="162.6" y="162.6" width="3.6" height="3.6"/>
      <rect class="cls-1" x="213.8" y="158.4" width="10" height="10" transform="translate(-51.4 202.6) rotate(-45)"/>
      <rect class="cls-1" x="216.8" y="325.3" width="3.6" height="3.6"/>
      <rect class="cls-1" x="216.8" y="487.8" width="3.6" height="3.6"/>
      <rect class="cls-1" x="216.8" y="162.6" width="3.6" height="3.6"/>
      <rect class="cls-1" x="271.1" y="325.3" width="3.6" height="3.6"/>
      <rect class="cls-1" x="320.8" y="375.4" width="12" height="12" transform="translate(-174 342.8) rotate(-45)"/>
      <rect class="cls-1" x="271.1" y="162.6" width="3.6" height="3.6"/>
      <rect class="cls-1" x="325.3" y="325.3" width="3.6" height="3.6"/>
      <rect class="cls-1" x="325.3" width="3.6" height="3.6"/>
      <rect class="cls-1" x="325.3" y="487.9" width="3.6" height="3.6"/>
      <rect class="cls-1" x="325.3" y="162.6" width="3.6" height="3.6"/>
      <rect class="cls-1" x="54.2" y="325.3" width="3.6" height="3.6"/>
    </g>
  </g>
</svg>